<?xml version="1.0" encoding="UTF-8"?>
<svg fill="#000000" xmlns="http://www.w3.org/2000/svg" xmlns:xlink="http://www.w3.org/1999/xlink" width="24px" height="24px" viewBox="0 0 24 24" version="1.1">
<g id="surface1">
<path d="M 12.003906 5.847656 C 8.597656 5.847656 5.851562 8.59375 5.851562 12 C 5.851562 15.40625 8.597656 18.152344 12.003906 18.152344 C 15.40625 18.152344 18.15625 15.40625 18.15625 12 C 18.15625 8.59375 15.40625 5.847656 12.003906 5.847656 Z M 12.003906 16 C 9.800781 16 8.003906 14.207031 8.003906 12 C 8.003906 9.792969 9.796875 8 12.003906 8 C 14.207031 8 16.003906 9.792969 16.003906 12 C 16.003906 14.207031 14.203125 16 12.003906 16 Z M 19.839844 5.597656 C 19.839844 6.394531 19.199219 7.03125 18.40625 7.03125 C 17.609375 7.03125 16.972656 6.390625 16.972656 5.597656 C 16.972656 4.804688 17.613281 4.160156 18.40625 4.160156 C 19.199219 4.160156 19.839844 4.804688 19.839844 5.597656 Z M 23.914062 7.054688 C 23.824219 5.132812 23.386719 3.429688 21.976562 2.027344 C 20.574219 0.621094 18.871094 0.183594 16.949219 0.0859375 C 14.96875 -0.0234375 9.03125 -0.0234375 7.050781 0.0859375 C 5.132812 0.179688 3.429688 0.617188 2.023438 2.019531 C 0.613281 3.421875 0.179688 5.125 0.0859375 7.046875 C -0.0273438 9.027344 -0.0273438 14.964844 0.0859375 16.949219 C 0.175781 18.871094 0.613281 20.574219 2.023438 21.976562 C 3.429688 23.378906 5.128906 23.816406 7.050781 23.914062 C 9.03125 24.027344 14.96875 24.027344 16.949219 23.914062 C 18.871094 23.820312 20.574219 23.382812 21.976562 21.976562 C 23.378906 20.574219 23.820312 18.871094 23.914062 16.949219 C 24.027344 14.964844 24.027344 9.035156 23.914062 7.054688 Z M 21.355469 19.074219 C 20.9375 20.121094 20.128906 20.929688 19.074219 21.355469 C 17.496094 21.980469 13.746094 21.835938 12.003906 21.835938 C 10.257812 21.835938 6.503906 21.976562 4.929688 21.355469 C 3.878906 20.9375 3.070312 20.128906 2.648438 19.074219 C 2.023438 17.492188 2.167969 13.746094 2.167969 12 C 2.167969 10.253906 2.027344 6.5 2.648438 4.925781 C 3.066406 3.878906 3.875 3.070312 4.929688 2.648438 C 6.507812 2.019531 10.257812 2.164062 12.003906 2.164062 C 13.746094 2.164062 17.5 2.027344 19.074219 2.648438 C 20.125 3.0625 20.933594 3.871094 21.355469 4.925781 C 21.984375 6.507812 21.839844 10.253906 21.839844 12 C 21.839844 13.746094 21.984375 17.5 21.355469 19.074219 Z M 21.355469 19.074219 "/>
</g>
</svg>
